<svg width="90" height="29" viewBox="0 0 90 29" fill="none" xmlns="http://www.w3.org/2000/svg">
<g clip-path="url(#clip0_60_898)">
<path d="M34.4718 7.70657V13.015C34.4718 14.55 33.9089 16.0343 32.8888 17.1873L24.8203 26.3096C23.6058 27.6824 21.8557 28.4668 20.0168 28.4668H5.21391C2.60738 28.4668 0.492188 26.3705 0.492188 23.7873V15.8517C0.492188 14.3167 1.05506 12.8324 2.07853 11.676L10.1471 2.55706C11.3581 1.18432 13.1083 0.399902 14.9506 0.399902H27.0994C27.6657 0.399902 28.1228 0.852992 28.1228 1.41423V5.67786C28.1228 6.23576 27.6657 6.69219 27.0994 6.69219H8.54695C7.60533 6.69219 6.84113 7.44957 6.84113 8.38279V20.4839C6.84113 21.4171 7.60533 22.1745 8.54695 22.1745H26.417C27.3586 22.1745 28.1228 21.4171 28.1228 20.4839V7.70657C28.1228 7.14528 28.5834 6.69224 29.1463 6.69224H33.4483C34.0147 6.69224 34.4718 7.14528 34.4718 7.70657Z" fill="#DCEFE3"/>
<path d="M46.7858 13.2448C45.9243 13.2448 45.1202 13.0826 44.3738 12.7582C43.627 12.4337 42.9752 11.9786 42.4183 11.3922C41.861 10.806 41.4276 10.1259 41.1175 9.35168C40.8074 8.57772 40.6523 7.74104 40.6523 6.84164C40.6523 5.94225 40.8074 5.10589 41.1175 4.33165C41.4276 3.55769 41.861 2.88319 42.4183 2.30824C42.9752 1.73358 43.627 1.28374 44.3738 0.959287C45.1203 0.634882 45.9243 0.472656 46.7858 0.472656C47.8195 0.472656 48.7641 0.683429 49.6199 1.10442C50.4754 1.52568 51.1848 2.11772 51.7477 2.88021C52.3103 3.64298 52.6665 4.53086 52.8159 5.54393H50.7312C50.6162 4.89507 50.375 4.33746 50.0076 3.87057C49.6398 3.40392 49.1806 3.02827 48.6293 2.74363C48.0779 2.45923 47.469 2.31674 46.803 2.31674C46.194 2.31674 45.6427 2.42773 45.149 2.6497C44.655 2.87167 44.2213 3.18492 43.8482 3.58881C43.4748 3.99303 43.1876 4.46819 42.9868 5.01461C42.7857 5.56103 42.6853 6.17007 42.6853 6.8416C42.6853 7.51313 42.7857 8.12222 42.9868 8.66864C43.1876 9.21506 43.4719 9.69607 43.8396 10.1115C44.2071 10.5271 44.6407 10.8457 45.1404 11.0677C45.64 11.2897 46.194 11.4006 46.803 11.4006C47.469 11.4006 48.0806 11.2614 48.6379 10.9823C49.1948 10.7035 49.6544 10.3222 50.0162 9.83827C50.378 9.35456 50.6162 8.78812 50.7312 8.13931H52.8159C52.6665 9.15262 52.3103 10.0431 51.7477 10.8115C51.1848 11.5799 50.4754 12.1775 49.6199 12.6044C48.7641 13.0313 47.8195 13.2447 46.7858 13.2447V13.2448Z" fill="#DCEFE3"/>
<path d="M55.8995 7.91713V12.9884H54.0044V0.728516H55.8995V5.37295C56.1981 4.88362 56.5801 4.49088 57.0453 4.19477C57.5105 3.89889 58.0188 3.75078 58.5701 3.75078C59.5004 3.75078 60.2498 4.04402 60.8184 4.63016C61.387 5.21658 61.6713 6.05033 61.6713 7.13165V12.9884H59.7933V7.74636C59.7933 6.9724 59.6323 6.37771 59.3109 5.96202C58.9892 5.5466 58.5356 5.33876 57.9498 5.33876C57.5476 5.33876 57.1974 5.44417 56.8988 5.65466C56.6 5.86543 56.3588 6.16131 56.1752 6.54254C55.9913 6.92408 55.8995 7.38219 55.8995 7.91709L55.8995 7.91713Z" fill="#DCEFE3"/>
<path d="M64.8411 7.14897H63.101C63.1355 6.46597 63.3105 5.87124 63.6265 5.36458C63.9423 4.85821 64.373 4.46816 64.9187 4.19495C65.4641 3.92174 66.093 3.78516 66.8052 3.78516C67.9308 3.78516 68.8095 4.10691 69.4413 4.74987C70.0729 5.39311 70.3889 6.35224 70.3889 7.62701V10.8713C70.3889 10.9967 70.4261 11.1018 70.5008 11.1871C70.5754 11.2725 70.6645 11.3152 70.7679 11.3152H71.3709V12.9886H69.8203C69.4986 12.9886 69.2458 12.8805 69.0622 12.6641C68.8784 12.448 68.7866 12.1919 68.7866 11.8957V11.264C68.6832 11.5601 68.5566 11.7877 68.4075 11.947C67.8217 12.7554 66.9831 13.1593 65.8921 13.1593H65.8405C64.9213 13.1593 64.1951 12.9262 63.661 12.4593C63.1269 11.9926 62.8599 11.3267 62.8599 10.4615C62.8599 9.55091 63.2101 8.86498 63.9108 8.40395C64.6113 7.94296 65.6394 7.7124 66.9948 7.7124C67.7184 7.7124 68.1548 7.66705 68.3042 7.57581C68.4533 7.48485 68.5281 7.32555 68.5281 7.09773V7.01234C68.5281 6.46592 68.3757 6.04201 68.0716 5.74023C67.7671 5.43873 67.345 5.28774 66.8053 5.28774C66.2539 5.28774 65.7944 5.44142 65.427 5.74873C65.0592 6.05609 64.8641 6.52302 64.8412 7.14893L64.8411 7.14897ZM64.7034 10.3762C64.7034 10.8201 64.8554 11.1504 65.1599 11.3665C65.4641 11.5829 65.8633 11.691 66.3573 11.691C66.9889 11.691 67.5087 11.4719 67.9166 11.0336C68.3242 10.5954 68.5282 9.96075 68.5282 9.12969V8.7199C68.5282 8.79966 68.4275 8.86503 68.2267 8.91627C68.0256 8.96751 67.5978 8.99311 66.9431 8.99311C66.2079 8.99311 65.6509 9.10144 65.2719 9.31756C64.8929 9.53391 64.7034 9.88693 64.7034 10.3762V10.3762Z" fill="#DCEFE3"/>
<path d="M81.1862 8.46375C81.1862 9.37457 81.0195 10.1827 80.6865 10.8884C80.3533 11.5944 79.8854 12.1493 79.2824 12.5532C78.6794 12.9574 77.97 13.1594 77.1547 13.1594C76.5345 13.1594 75.9887 13.0113 75.5179 12.7154C75.0468 12.4196 74.6565 11.9983 74.3463 11.4519V16.1987H72.4512V3.92175H74.3463V5.44143C74.4381 5.25946 74.5471 5.09436 74.6737 4.94625C75.3053 4.14962 76.1266 3.75098 77.1375 3.75098C77.9989 3.75098 78.7195 3.95027 79.2997 4.34859C79.8795 4.74719 80.3391 5.3048 80.678 6.02195C81.0166 6.73915 81.1862 7.55311 81.1862 8.4637L81.1862 8.46375ZM79.2737 8.51494C79.2737 7.5702 79.0468 6.83308 78.5933 6.30376C78.1394 5.77439 77.5393 5.50977 76.7928 5.50977C76.3104 5.50977 75.891 5.62368 75.5351 5.85127C75.179 6.07909 74.8917 6.40917 74.6737 6.84163C74.4782 7.21728 74.3692 7.66711 74.3463 8.19058V8.80525C74.3692 9.34047 74.4726 9.79003 74.6564 10.1542C74.8632 10.5981 75.1501 10.9396 75.5178 11.1787C75.8853 11.4177 76.3104 11.5372 76.7928 11.5372C77.5393 11.5372 78.1394 11.2784 78.5933 10.7603C79.0468 10.2425 79.2737 9.4941 79.2737 8.51494Z" fill="#DCEFE3"/>
<path d="M89.5078 10.2737C89.5078 11.1616 89.1745 11.8646 88.5085 12.3825C87.8423 12.9006 86.9003 13.1594 85.683 13.1594C84.4998 13.1594 83.5493 12.8891 82.8315 12.3483C82.1136 11.8078 81.7375 11.0421 81.7031 10.0517H83.5466C83.6039 10.6552 83.8223 11.0906 84.2013 11.3579C84.5803 11.6256 85.0684 11.7592 85.6657 11.7592C86.2744 11.7592 86.7568 11.6456 87.113 11.4177C87.4688 11.1901 87.647 10.8772 87.647 10.4786C87.647 10.1144 87.532 9.83263 87.3024 9.63333C87.0725 9.43431 86.6763 9.27771 86.1136 9.16375L84.6664 8.90764C83.805 8.74834 83.1416 8.4637 82.6765 8.05391C82.2113 7.64412 81.9787 7.11475 81.9787 6.46594C81.9787 5.93099 82.1251 5.46141 82.418 5.05724C82.7109 4.6533 83.1214 4.33447 83.6499 4.10103C84.1781 3.86786 84.8099 3.75098 85.545 3.75098C86.3145 3.75098 86.9751 3.87344 87.5264 4.11812C88.0777 4.36304 88.5256 4.70719 88.8702 5.15117C89.2148 5.59511 89.3984 6.12443 89.4215 6.73915H87.6125C87.578 6.17005 87.3683 5.75464 86.9836 5.49267C86.5987 5.23094 86.1192 5.09998 85.545 5.09998C85.0626 5.09998 84.6578 5.20534 84.3304 5.41584C84.003 5.62661 83.8393 5.92542 83.8393 6.3123C83.8393 6.68795 83.9656 6.98118 84.2183 7.19168C84.4709 7.40245 84.8731 7.55882 85.4244 7.66126L86.8372 7.91742C87.7675 8.08815 88.4451 8.37576 88.8702 8.7797C89.295 9.18387 89.5077 9.68202 89.5077 10.2738L89.5078 10.2737Z" fill="#DCEFE3"/>
<path d="M52.1198 16.0508L47.5542 28.3107H45.4523L40.9038 16.0508H43.023L46.555 25.9372L50.1386 16.0508H52.1198Z" fill="#DCEFE3"/>
<path d="M54.0044 15.9312H55.8823V17.7752H54.0044V15.9312ZM55.8823 28.3105H54.0044V19.2437H55.8823V28.3105Z" fill="#DCEFE3"/>
<path d="M65.3291 25.5955C65.3291 26.4834 64.9958 27.1864 64.3298 27.7043C63.6635 28.2224 62.7216 28.4812 61.5043 28.4812C60.3211 28.4812 59.3706 28.2109 58.6528 27.6701C57.9349 27.1296 57.5588 26.3639 57.5244 25.3735H59.3679C59.4252 25.977 59.6435 26.4124 60.0226 26.6797C60.4016 26.9473 60.8897 27.081 61.487 27.081C62.0957 27.081 62.5781 26.9674 62.9343 26.7395C63.2901 26.5119 63.4683 26.199 63.4683 25.8003C63.4683 25.4362 63.3533 25.1544 63.1237 24.9551C62.8938 24.7561 62.4976 24.5995 61.9349 24.4855L60.4877 24.2294C59.6262 24.0701 58.9629 23.7855 58.4978 23.3757C58.0325 22.9659 57.8 22.4365 57.8 21.7877C57.8 21.2528 57.9464 20.7832 58.2393 20.379C58.5322 19.9751 58.9427 19.6562 59.4712 19.4228C59.9994 19.1896 60.6312 19.0728 61.3663 19.0728C62.1357 19.0728 62.7964 19.1952 63.3476 19.4399C63.899 19.6848 64.3469 20.029 64.6915 20.473C65.0361 20.9169 65.2197 21.4462 65.2428 22.0609H63.4338C63.3993 21.4918 63.1896 21.0764 62.8049 20.8145C62.4199 20.5527 61.9405 20.4218 61.3663 20.4218C60.8838 20.4218 60.479 20.5271 60.1517 20.7376C59.8243 20.9484 59.6606 21.2472 59.6606 21.6341C59.6606 22.0097 59.7869 22.303 60.0396 22.5135C60.2921 22.7242 60.6943 22.8806 61.2457 22.983L62.6585 23.2392C63.5888 23.4099 64.2664 23.6975 64.6915 24.1015C65.1163 24.5056 65.329 25.0038 65.329 25.5956L65.3291 25.5955Z" fill="#DCEFE3"/>
<path d="M67.2471 15.9312H69.125V17.7752H67.2471V15.9312ZM69.125 28.3105H67.2471V19.2437H69.125V28.3105Z" fill="#DCEFE3"/>
<path d="M75.2579 28.4851C74.6032 28.4851 74.0029 28.3682 73.4575 28.135C72.9118 27.9018 72.438 27.5715 72.0361 27.1446C71.6339 26.7178 71.3211 26.217 71.0971 25.6421C70.8732 25.0674 70.7612 24.4442 70.7612 23.7723C70.7612 23.1005 70.8732 22.4805 71.0971 21.9111C71.3211 21.3421 71.6339 20.8469 72.0361 20.4256C72.438 20.0046 72.9118 19.6772 73.4575 19.4438C74.0029 19.2106 74.6032 19.0938 75.2579 19.0938C75.9011 19.0938 76.4954 19.2106 77.0412 19.4438C77.5866 19.6772 78.0603 20.0046 78.4626 20.4256C78.8645 20.8469 79.1776 21.3421 79.4016 21.9111C79.6255 22.4805 79.7375 23.1008 79.7375 23.7723C79.7375 24.4439 79.6255 25.0673 79.4016 25.6421C79.1776 26.217 78.8645 26.7178 78.4626 27.1446C78.0604 27.5715 77.5866 27.9018 77.0412 28.135C76.4954 28.3682 75.9011 28.4851 75.2579 28.4851ZM75.2579 26.8629C75.7404 26.8629 76.1797 26.7378 76.5759 26.4873C76.9723 26.237 77.285 25.8811 77.5149 25.4201C77.7445 24.9591 77.8595 24.41 77.8595 23.7724C77.8595 23.1348 77.7445 22.5886 77.5149 22.1332C77.285 21.678 76.9723 21.328 76.5759 21.0831C76.1797 20.8384 75.7404 20.7159 75.2579 20.7159C74.7755 20.7159 74.3362 20.8384 73.94 21.0831C73.5437 21.328 73.2306 21.678 73.001 22.1332C72.7711 22.5886 72.6564 23.135 72.6564 23.7724C72.6564 24.4098 72.7711 24.9591 73.001 25.4201C73.2307 25.8811 73.5437 26.237 73.94 26.4873C74.3362 26.7378 74.7755 26.8629 75.2579 26.8629Z" fill="#DCEFE3"/>
<path d="M83.2931 23.0513V28.3104H81.3979V19.2435H83.2931V20.473C83.3733 20.3137 83.4654 20.1714 83.5688 20.0461C84.097 19.3972 84.8782 19.0728 85.912 19.0728C87.0259 19.0728 87.83 19.4001 88.324 20.0546C88.8177 20.7093 89.0648 21.6797 89.0648 22.9659V28.3104H87.1869V23.0513C87.1869 22.2205 87.0202 21.6228 86.6872 21.2584C86.3539 20.8942 85.8715 20.712 85.24 20.712C84.6311 20.712 84.1546 20.8942 83.81 21.2584C83.4654 21.6228 83.2932 22.2205 83.2932 23.0513H83.2931Z" fill="#DCEFE3"/>
</g>
<defs>
<clipPath id="clip0_60_898">
<rect width="90" height="29" fill="white"/>
</clipPath>
</defs>
</svg>
